<svg width="20" height="20" viewBox="0 0 20 20" fill="none" xmlns="http://www.w3.org/2000/svg">
<path d="M15.8213 2.0495C14.4446 0.727893 12.5394 0 10.4567 0C7.27529 0 5.31857 1.30411 4.23731 2.39806C2.90473 3.74623 2.14062 5.53635 2.14062 7.30948C2.14062 9.53578 3.07184 11.2445 4.63126 11.8802C4.73595 11.9231 4.8413 11.9447 4.94458 11.9447C5.27357 11.9447 5.53423 11.7295 5.62455 11.3842C5.6772 11.1861 5.79916 10.6974 5.8522 10.4852C5.96572 10.0663 5.874 9.86477 5.62642 9.57301C5.1754 9.03933 4.96536 8.40827 4.96536 7.58698C4.96536 5.14748 6.78185 2.55481 10.1485 2.55481C12.8199 2.55481 14.4793 4.0731 14.4793 6.5171C14.4793 8.05937 14.1471 9.48765 13.5437 10.539C13.1244 11.2696 12.3871 12.1404 11.2552 12.1404C10.7657 12.1404 10.326 11.9393 10.0486 11.5888C9.78655 11.2574 9.70015 10.8294 9.80558 10.3832C9.92464 9.87918 10.087 9.3534 10.2442 8.84511C10.5308 7.91675 10.8017 7.03991 10.8017 6.34034C10.8017 5.14377 10.0661 4.33974 8.97135 4.33974C7.5801 4.33974 6.49013 5.7528 6.49013 7.55671C6.49013 8.4414 6.72525 9.10312 6.8317 9.35719C6.65642 10.0998 5.61478 14.5146 5.4172 15.3471C5.30294 15.8331 4.61474 19.6716 5.75384 19.9776C7.03369 20.3215 8.17772 16.5831 8.29416 16.1607C8.38854 15.8171 8.71874 14.518 8.92108 13.7195C9.53894 14.3146 10.5337 14.7169 11.5017 14.7169C13.3265 14.7169 14.9676 13.8958 16.1228 12.4049C17.243 10.9588 17.86 8.9432 17.86 6.72975C17.8599 4.99936 17.1168 3.29341 15.8213 2.0495Z" fill="#FC7D47"/>
</svg>
