<svg width="98" height="65" viewBox="0 0 98 65" fill="none" xmlns="http://www.w3.org/2000/svg">
<path d="M0 28.1227C0.308502 25.925 0.932467 23.7829 1.8538 21.762C2.69429 19.8418 4.12773 18.2379 5.9462 17.1825C6.93478 16.5497 8.11429 16.2795 9.28148 16.4188C10.4487 16.5581 11.5304 17.0982 12.3404 17.9457C13.5591 19.2222 14.7118 20.5597 15.7936 21.953C16.6763 22.9558 17.7119 23.8141 18.8627 24.497C19.4382 24.8787 19.7582 24.497 19.95 24.0517C20.1418 23.6065 20.4615 22.0164 20.7173 20.9987C20.973 19.981 22.1234 18.7726 23.3383 19.0906C24.5532 19.4086 25.0013 20.4898 24.6176 22.0799L23.0831 28.4406C23.0831 29.0767 23.0829 29.331 23.6584 29.5219C28.2337 30.7184 32.8938 31.5691 37.5981 32.0663C42.542 32.6391 47.5228 32.8307 52.4964 32.6389C59.6676 32.3932 66.7881 31.3474 73.7249 29.5219C74.1725 29.5219 74.6201 29.5222 74.4922 28.6317C73.1076 21.7402 70.6937 15.0936 67.3307 8.91321C66.5155 7.54239 65.5272 6.28139 64.3896 5.16061C63.9694 4.74973 63.4609 4.43887 62.9027 4.25138C62.3444 4.0639 61.7513 4.0044 61.1667 4.07785C60.5822 4.1513 60.0214 4.35565 59.5276 4.67533C59.0337 4.99501 58.6197 5.42196 58.3154 5.92387L57.6761 6.87774C56.7127 8.60067 55.2357 9.98456 53.4495 10.8388C51.6632 11.6931 49.6551 11.9758 47.7007 11.6483C46.0061 11.632 44.3492 11.1477 42.9152 10.2491C41.4812 9.35055 40.3265 8.07327 39.5799 6.55978C39.3038 5.8482 38.8231 5.23339 38.1976 4.79218C37.5721 4.35098 36.83 4.10285 36.0636 4.07901C35.1453 4.0087 34.2334 4.28114 33.5057 4.84265C32.7603 5.47834 32.0749 6.18071 31.4591 6.94141C31.3016 7.16246 31.0999 7.34911 30.8667 7.4892C30.6335 7.62928 30.3741 7.7201 30.1041 7.75591C29.8341 7.79172 29.5597 7.77171 29.2978 7.69729C29.0359 7.62286 28.7923 7.49531 28.582 7.32304C28.3964 7.13975 28.2494 6.92185 28.1488 6.68169C28.0483 6.44152 27.9966 6.18402 27.9966 5.92387C27.9966 5.66371 28.0483 5.40621 28.1488 5.16605C28.2494 4.92588 28.3964 4.70759 28.582 4.52431C29.443 3.31764 30.5021 2.26402 31.7152 1.40762C33.3701 0.239598 35.4228 -0.228657 37.4241 0.10512C39.4253 0.438896 41.2123 1.54771 42.3938 3.18881C42.8993 3.86352 43.3687 4.56388 43.8004 5.28756C44.1565 5.89171 44.6475 6.40677 45.235 6.79272C45.8225 7.17866 46.4911 7.42544 47.1895 7.51404C48.5846 7.76847 50.014 7.76847 51.4091 7.51404C51.9963 7.37126 52.5483 7.11154 53.0319 6.75079C53.5154 6.39004 53.9208 5.93562 54.223 5.4149C54.6823 4.61825 55.195 3.85333 55.7575 3.12514C56.3874 2.31027 57.1761 1.63034 58.0765 1.12616C58.977 0.621971 59.9711 0.303779 60.9981 0.190918C62.0252 0.0780564 63.0646 0.172763 64.054 0.469277C65.0434 0.76579 65.962 1.25812 66.7554 1.91659C68.4242 3.28869 69.8321 4.94769 70.9118 6.81446C73.9834 12.2626 76.2854 18.1057 77.7533 24.1791C77.7533 25.3876 77.754 25.451 79.2247 24.7513C80.9876 23.4913 82.5224 21.9429 83.7643 20.1718C84.4809 19.2568 85.32 18.4435 86.2582 17.7547C86.9804 17.2284 87.8358 16.9137 88.7286 16.8462C89.6213 16.7788 90.5152 16.9613 91.3091 17.3731C92.5703 18.0157 93.6829 18.9134 94.5749 20.0087C95.4668 21.1041 96.1188 22.373 96.4888 23.7338C98.5037 29.3485 98.5037 35.4837 96.4888 41.0984C93.7801 48.3806 88.384 54.3626 81.3985 57.8271C75.0739 61.1788 68.1792 63.3354 61.0645 64.1878C55.8137 64.9296 50.5031 65.1642 45.2069 64.8878C35.5325 64.7766 26.0144 62.4476 17.3921 58.0818C11.6566 55.2952 6.89071 50.8646 3.70838 45.3604C2.07652 42.3788 1.01426 39.1222 0.575263 35.7556C0.611036 35.5451 0.611036 35.3298 0.575263 35.1193L0 28.1227ZM49.1713 45.8057C45.3347 45.8057 41.8823 45.8055 38.4294 45.2967C32.3044 44.6719 26.2477 43.5011 20.3332 41.7984C17.4558 40.9715 17.3283 40.4623 17.5201 37.4727C17.7218 34.8663 18.0844 32.2749 18.6067 29.7129C18.6362 29.6168 18.6468 29.5159 18.6371 29.4159C18.6274 29.3159 18.598 29.2188 18.5505 29.1301C18.5029 29.0415 18.4381 28.9633 18.36 28.8995C18.2819 28.8358 18.1921 28.7877 18.0954 28.7586C15.818 27.7421 13.8215 26.1929 12.2764 24.2427C11.3812 23.225 10.4865 22.1438 9.52735 21.1261C9.40742 20.9798 9.2562 20.8615 9.08478 20.7805C8.91335 20.6996 8.72583 20.6579 8.53605 20.6579C8.34628 20.6579 8.15875 20.6996 7.98733 20.7805C7.8159 20.8615 7.66469 20.9798 7.54476 21.1261C6.31207 22.0469 5.41411 23.3416 4.98691 24.815C4.05169 27.631 3.6833 30.6029 3.90273 33.5606C4.12216 36.5182 4.92557 39.4038 6.26622 42.0527C9.06892 47.4382 13.5579 51.7697 19.0547 54.3925C28.5781 58.9337 39.0646 61.116 49.6193 60.7532C52.9138 60.7418 56.2032 60.5081 59.4659 60.0536C65.8452 59.3296 72.0523 57.5222 77.8173 54.7104C83.5215 52.0416 88.1764 47.5681 91.0538 41.989C92.4081 39.3198 93.2079 36.4066 93.4056 33.4232C93.6034 30.4397 93.1945 27.4474 92.2044 24.6244C91.7919 23.2635 90.9654 22.0632 89.8385 21.1893C89.7129 21.0306 89.553 20.9026 89.3702 20.8143C89.1874 20.7261 88.9872 20.68 88.784 20.68C88.5809 20.68 88.3798 20.7261 88.197 20.8143C88.0143 20.9026 87.8544 21.0306 87.7287 21.1893L85.8101 23.3522C84.2399 25.5066 82.2093 27.288 79.8639 28.568C78.5851 29.2041 78.5849 29.1406 78.8406 30.6671C79.4368 33.4936 79.7794 36.3671 79.8639 39.2539C79.8639 40.7169 79.416 41.3531 77.9453 41.7984C68.5974 44.4831 58.8998 45.7692 49.1713 45.6146V45.8057ZM49.9386 41.7984C54.8218 41.7607 59.6954 41.3567 64.5176 40.5898C68.0311 40.0158 71.5105 39.2511 74.9402 38.2997C75.5157 38.2997 76.0274 37.9817 75.8995 37.1548L75.5155 33.7201C75.5155 33.1477 75.5154 32.8934 74.5562 33.0842C68.7118 34.5993 62.7408 35.5784 56.7168 36.0099C50.8466 36.5494 44.9389 36.5494 39.0687 36.0099C33.6452 35.5581 28.2737 34.6213 23.0191 33.2112C22.3157 33.2112 22.0597 33.2114 21.9958 33.8475C21.9319 34.4836 21.9958 35.7554 21.9958 36.7095C21.9958 37.6636 21.9961 38.109 23.1471 38.4907C31.8907 40.7528 40.9062 41.8016 49.9386 41.6074V41.7984Z" fill="#FC7D47"/>
</svg>
