<svg width="87" height="66" viewBox="0 0 87 66" fill="none" xmlns="http://www.w3.org/2000/svg">
<g clip-path="url(#clip0_740_1219)">
<path d="M74.9044 43.6122C74.8969 44.0363 74.7228 44.4404 74.4194 44.7376C74.116 45.0348 73.7073 45.2013 73.282 45.2012C72.8593 45.1722 72.464 44.9821 72.178 44.6704C71.8919 44.3588 71.7371 43.9494 71.7454 43.527C71.7602 43.1155 71.9345 42.7258 72.2318 42.4399C72.5291 42.1541 72.926 41.9946 73.339 41.9949C73.5494 41.9947 73.7577 42.0369 73.9514 42.1189C74.1452 42.2008 74.3205 42.3208 74.4666 42.4718C74.6128 42.6228 74.7267 42.8017 74.8019 42.9976C74.8771 43.1936 74.912 43.4026 74.9044 43.6122Z" fill="#FC7D47"/>
<path d="M86.8864 63.8435C86.7632 63.5364 86.611 63.2419 86.4313 62.9639L79.174 50.4505C78.8041 49.8262 78.491 49.2021 78.0641 48.6062C77.8431 48.2788 77.506 48.0469 77.1205 47.9574C76.7351 47.8679 76.3299 47.9273 75.9866 48.1237C75.6299 48.3321 75.3665 48.6684 75.2501 49.0639C75.1337 49.4595 75.1733 49.8843 75.3606 50.2518C75.3606 50.5639 75.7019 50.8761 75.8727 51.1882C77.9786 54.8202 80.0846 58.4805 82.219 62.1125C82.5321 62.6516 82.532 62.8502 81.8205 62.8219H75.3036L74.5067 61.4599L57.602 32.2906L60.8746 26.6157C61.273 25.9347 61.3016 25.9063 61.7 26.6157L65.8264 33.7376C66.7371 35.2982 67.5909 36.8305 68.6724 38.3627C68.8312 38.6546 69.081 38.8872 69.3839 39.0253C69.6867 39.1635 70.0264 39.1998 70.3517 39.1289C70.682 39.0657 70.9836 38.8999 71.2136 38.6552C71.4437 38.4106 71.5902 38.0997 71.6322 37.767C71.6778 37.3141 71.5564 36.8602 71.2907 36.4901L66.6234 28.4315C65.3712 26.275 64.1476 24.1187 62.8669 21.9905C62.7341 21.7279 62.5307 21.5071 62.2795 21.3529C62.0282 21.1987 61.739 21.1172 61.444 21.1172C61.1489 21.1172 60.8597 21.1987 60.6084 21.3529C60.3572 21.5071 60.1539 21.7279 60.021 21.9905L59.708 22.5297C58.4558 24.7145 57.1749 26.8994 55.8942 29.0843L53.7313 25.3672L53.3331 24.6578V24.4875V24.3173C53.1339 24.0052 52.963 23.6646 52.7922 23.3525C48.5518 16.0601 44.2546 8.79609 40.0995 1.47537C38.9611 -0.510873 37.2536 -0.510873 36.1721 1.47537L24.9875 20.7987L17.9296 33L13.0917 41.3138L10.2457 46.1376L6.06197 53.3732L0.370117 63.3894V64.8365C0.617673 65.2494 0.982082 65.58 1.41754 65.787C1.85299 65.994 2.34038 66.0682 2.81792 66H85.5489C85.7968 65.983 86.0371 65.9072 86.2499 65.7792C86.4627 65.6512 86.6417 65.4745 86.7724 65.2638C86.9031 65.0531 86.9819 64.8144 87.0017 64.5674C87.0215 64.3204 86.9818 64.0723 86.8864 63.8435ZM31.2772 16.9681L37.3105 6.55459C37.7944 5.73171 37.8512 5.73171 38.335 6.55459C41.7691 12.5133 45.2222 18.472 48.6943 24.4307C48.784 24.5372 48.8507 24.6607 48.8909 24.7939C48.931 24.9271 48.9437 25.0671 48.9277 25.2052C48.9117 25.3434 48.8677 25.4768 48.7981 25.5973C48.7286 25.7179 48.635 25.823 48.5233 25.9063C47.1004 27.2683 45.7059 28.6586 44.3399 30.0773C43.8561 30.5597 43.5714 30.5313 43.116 30.0773L36.0582 23.012C34.8059 21.7919 34.18 21.7067 32.7002 22.6147L26.4104 26.417L25.8699 26.7007V26.5588L31.2772 16.9681ZM69.3557 62.1409H6.28987C5.97682 62.1409 5.54973 62.3112 5.37898 61.9991C5.20822 61.6869 5.54972 61.4032 5.72047 61.1194L21.0031 34.674C21.3207 34.0935 21.7939 33.6123 22.3694 33.2837C25.9268 31.1556 29.4842 29.0274 33.0132 26.8425C33.1349 26.7393 33.277 26.6629 33.4304 26.6181C33.5838 26.5733 33.7452 26.5612 33.9036 26.5826C34.062 26.604 34.2137 26.6583 34.3496 26.7423C34.4855 26.8262 34.6024 26.9377 34.6922 27.0696C37.0827 29.5098 39.4734 31.8649 41.8924 34.2767C43.2869 35.6387 44.1974 35.6387 45.5919 34.2767L50.3448 29.5382C51.1416 28.7437 51.17 28.7153 51.7108 29.5382C56.5299 37.8426 61.3488 46.1563 66.1679 54.4796L69.9248 60.9776C70.5509 62.368 70.5225 62.3679 69.3557 62.3679V62.1409Z" fill="#FC7D47"/>
</g>
<defs>
<clipPath id="clip0_740_1219">
<rect width="87" height="66" fill="white"/>
</clipPath>
</defs>
</svg>
