<svg width="21" height="22" viewBox="0 0 21 22" fill="none" xmlns="http://www.w3.org/2000/svg">
<path d="M18.7 12.4667H18.1333V6.23333C18.1333 5.03767 17.391 4.02332 16.3427 3.60399L15.2717 0.385328C15.1923 0.15865 14.977 0 14.7333 0H12.4667C12.155 0 11.9 0.255006 11.9 0.566667V1.13333H8.49999V0.566667C8.49999 0.255006 8.24499 0 7.93333 0H5.66666C5.423 0 5.20766 0.15865 5.12832 0.385328L4.05732 3.60399C3.00899 4.02332 2.26667 5.03767 2.26667 6.23333V12.4667H1.7C0.764989 12.4667 0 13.2316 0 14.1667V18.1333C0 19.0683 0.764989 19.8333 1.7 19.8333H2.26667C2.26667 20.7683 3.03166 21.5333 3.96667 21.5333H7.93333C8.24499 21.5333 8.5 21.2783 8.5 20.9667C8.5 20.655 8.24499 20.4 7.93333 20.4H3.96667C3.65501 20.4 3.4 20.145 3.4 19.8333V6.23333C3.4 5.29832 4.16499 4.53333 5.1 4.53333H15.3C16.235 4.53333 17 5.29832 17 6.23333V19.8333C17 20.145 16.745 20.4 16.4333 20.4H12.4667C12.155 20.4 11.9 20.655 11.9 20.9667C11.9 21.2783 12.155 21.5333 12.4667 21.5333H16.4333C17.3683 21.5333 18.1333 20.7683 18.1333 19.8333H18.7C19.635 19.8333 20.4 19.0683 20.4 18.1333V14.1667C20.4 13.2316 19.635 12.4667 18.7 12.4667ZM2.26666 18.7H1.69999C1.38833 18.7 1.13332 18.445 1.13332 18.1333V14.1667C1.13332 13.855 1.38833 13.6 1.69999 13.6H2.26666V18.7ZM7.36666 3.39999H5.32099L6.07464 1.13333H7.36666V3.39999ZM11.9 3.39999H8.49999V2.26666H11.9V3.39999ZM13.0333 3.39999V1.13333H14.3253L15.079 3.39999H13.0333ZM19.2667 18.1333C19.2667 18.445 19.0117 18.7 18.7 18.7H18.1333V13.6H18.7C19.0117 13.6 19.2667 13.855 19.2667 14.1667V18.1333Z" fill="#FC7D47"/>
<path d="M11.9 9.63335C11.9 8.69591 11.1374 7.93335 10.2 7.93335C9.26256 7.93335 8.5 8.69591 8.5 9.63335C8.5 10.5708 9.26256 11.3333 10.2 11.3333C11.1374 11.3333 11.9 10.5708 11.9 9.63335ZM9.63333 9.63335C9.63333 9.32096 9.88734 9.06668 10.2 9.06668C10.5127 9.06668 10.7667 9.32096 10.7667 9.63335C10.7667 9.94574 10.5127 10.2 10.2 10.2C9.88734 10.2 9.63333 9.94574 9.63333 9.63335Z" fill="#FC7D47"/>
<path d="M4.53418 11.3332V18.6998C4.53418 19.0128 4.78763 19.2665 5.10085 19.2665H15.3008C15.6141 19.2665 15.8675 19.0128 15.8675 18.6998V11.3332C15.8675 11.0202 15.6141 10.7665 15.3008 10.7665H13.9446C14.0809 10.3417 14.1675 9.95178 14.1675 9.63317C14.1675 7.44592 12.3878 5.6665 10.2008 5.6665C8.01386 5.6665 6.23418 7.44592 6.23418 9.63317C6.23418 9.95178 6.32082 10.3417 6.45709 10.7665H5.10085C4.78763 10.7665 4.53418 11.0202 4.53418 11.3332ZM10.2008 6.79984C11.7631 6.79984 13.0342 8.07096 13.0342 9.63317C13.0342 10.7269 11.4498 13.5096 10.2008 15.4166C8.95186 13.5096 7.36751 10.7269 7.36751 9.63317C7.36751 8.07096 8.63864 6.79984 10.2008 6.79984ZM5.66751 11.8998H6.90132C7.84398 13.9843 9.48151 16.3886 9.73434 16.755C9.84004 16.9083 10.0144 16.9998 10.2008 16.9998C10.3873 16.9998 10.5617 16.9083 10.6673 16.755C10.9202 16.3886 12.5577 13.9843 13.5004 11.8998H14.7342V18.1332H5.66751V11.8998Z" fill="#FC7D47"/>
<path d="M10.2005 21.5335C10.5134 21.5335 10.7671 21.2798 10.7671 20.9668C10.7671 20.6539 10.5134 20.4001 10.2005 20.4001C9.88749 20.4001 9.63379 20.6539 9.63379 20.9668C9.63379 21.2798 9.88749 21.5335 10.2005 21.5335Z" fill="#FC7D47"/>
</svg>
