<svg width="28" height="17" viewBox="0 0 28 17" fill="none" xmlns="http://www.w3.org/2000/svg">
<path d="M5.28809 0.150391H19.3906C21.8699 0.150391 23.9402 1.92102 24.4199 4.26953L24.4443 4.38867H25.0322C26.3029 4.38877 27.3496 5.43803 27.3496 6.71191V9.53809C27.3496 10.812 26.3029 11.8612 25.0322 11.8613H24.4434L24.4199 11.9814C23.9542 14.3286 21.8705 16.0996 19.3906 16.0996H5.28809C2.45218 16.0994 0.150436 13.7934 0.150391 10.9512V5.29883C0.150436 2.45656 2.45218 0.150594 5.28809 0.150391ZM5.28809 1.96973C3.45645 1.96993 1.96587 3.46426 1.96582 5.29883V10.9512C1.96587 12.7857 3.45645 14.2801 5.28809 14.2803H19.3906C21.2224 14.2803 22.7138 12.7859 22.7139 10.9512C22.7139 10.4544 23.127 10.041 23.6221 10.041H25.0322C25.3127 10.0409 25.5342 9.8184 25.5342 9.53809V6.71191C25.5342 6.4316 25.3127 6.20908 25.0322 6.20898H23.6221C23.127 6.20898 22.7139 5.79561 22.7139 5.29883C22.7138 3.46413 21.2224 1.96973 19.3906 1.96973H5.28809ZM12.3809 3.38867C12.6588 2.96505 13.2139 2.85444 13.6396 3.13477C14.0631 3.4136 14.1714 3.98393 13.8936 4.39551V4.39648L12.1729 6.98242L12.0176 7.21484H14.4043V7.22949H14.5537C14.89 7.22949 15.1937 7.42213 15.3525 7.71582C15.5078 8.00305 15.4864 8.36766 15.3037 8.64941L12.4834 12.8887C12.3149 13.1419 12.0237 13.2881 11.7334 13.2881C11.5507 13.2881 11.3834 13.2397 11.2266 13.1309L11.2236 13.1289L11.1475 13.0732C10.788 12.7794 10.7094 12.2549 10.9697 11.8691V11.8682L12.6904 9.28223L12.8457 9.04883H10.3096C9.97336 9.04883 9.6696 8.85607 9.51074 8.5625C9.35547 8.27527 9.37691 7.91066 9.55957 7.62891L12.3799 3.38965L12.3809 3.38867Z" fill="#FC7D47" stroke="#F8F4ED" stroke-width="0.3"/>
</svg>
